<svg width="24" height="284" viewBox="0 0 24 284" fill="none" xmlns="http://www.w3.org/2000/svg">
<path d="M13.5 2.38672C13.5 1.55829 12.8284 0.886719 12 0.886719C11.1716 0.886719 10.5 1.55829 10.5 2.38672L13.5 2.38672ZM10.9393 283.447C11.5251 284.033 12.4749 284.033 13.0606 283.447L22.6066 273.901C23.1924 273.316 23.1924 272.366 22.6066 271.78C22.0208 271.194 21.0711 271.194 20.4853 271.78L12 280.265L3.51471 271.78C2.92892 271.194 1.97917 271.194 1.39339 271.78C0.8076 272.366 0.8076 273.316 1.39339 273.901L10.9393 283.447ZM10.5 2.38672L10.5 282.387L13.5 282.387L13.5 2.38672L10.5 2.38672Z" fill="#4E4E4E"/>
</svg>
