<svg width="24" height="284" viewBox="0 0 24 284" fill="none" xmlns="http://www.w3.org/2000/svg">
<path opacity="0.3" d="M10.5 282.387C10.5 283.215 11.1716 283.887 12 283.887C12.8284 283.887 13.5 283.215 13.5 282.387H10.5ZM13.0607 1.32605C12.4749 0.740265 11.5251 0.740265 10.9393 1.32605L1.3934 10.872C0.807611 11.4578 0.807611 12.4075 1.3934 12.9933C1.97919 13.5791 2.92893 13.5791 3.51472 12.9933L12 4.50803L20.4853 12.9933C21.0711 13.5791 22.0208 13.5791 22.6066 12.9933C23.1924 12.4075 23.1924 11.4578 22.6066 10.872L13.0607 1.32605ZM13.5 282.387L13.5 2.38672H10.5L10.5 282.387H13.5Z" fill="#4E4E4E"/>
</svg>
