<svg width="251" height="75" viewBox="0 0 251 75" fill="none" xmlns="http://www.w3.org/2000/svg">
<path d="M30.6 40.95C30.6 49.9 24.2 55.35 15.85 55.35C7.5 55.35 1.2 49.9 1.2 40.95C1.2 32.05 7.55 26.6 15.9 26.6C24.25 26.6 30.6 32.05 30.6 40.95ZM11.2 40.95C11.2 45 13.3 46.85 15.85 46.85C18.35 46.85 20.65 45 20.65 40.95C20.65 36.95 18.4 35.1 15.9 35.1C13.4 35.1 11.2 36.95 11.2 40.95ZM53.6871 55V39.95C53.6871 36.7 51.8871 34.8 49.0871 34.8C46.1871 34.8 44.3871 36.7 44.3871 39.95V55H34.5871V26.95H44.3871V30.95C46.0371 28.55 48.9871 26.7 52.9371 26.7C59.4371 26.7 63.4871 31.3 63.4871 38.65V55H53.6871ZM81.4645 34.35C79.1145 34.35 77.4645 35.65 77.0145 38.2H85.6645C85.6645 35.7 83.7145 34.35 81.4645 34.35ZM95.0645 45.3C93.7645 51.05 88.5145 55.35 81.5145 55.35C73.2145 55.35 67.2645 49.9 67.2645 40.95C67.2645 32.05 73.1145 26.6 81.5145 26.6C89.8145 26.6 95.6645 31.95 95.6645 40.65C95.6645 41.4 95.6145 42.2 95.5145 42.95H76.9645C77.1645 46.2 78.9145 47.5 81.1145 47.5C83.0145 47.5 84.0645 46.45 84.6145 45.3H95.0645Z" fill="#F4F4F4"/>
<rect x="104" y="13" width="52" height="49" rx="8" fill="#F4F4F4"/>
<path d="M134.88 51.5L129.4 43.54L124.72 51.5H115.8L124.96 37.06L115.48 23.3H124.72L130.04 31.06L134.6 23.3H143.52L134.48 37.5L144.12 51.5H134.88Z" fill="#C32051"/>
<path d="M178.4 34.35C176.05 34.35 174.4 35.65 173.95 38.2H182.6C182.6 35.7 180.65 34.35 178.4 34.35ZM192 45.3C190.7 51.05 185.45 55.35 178.45 55.35C170.15 55.35 164.2 49.9 164.2 40.95C164.2 32.05 170.05 26.6 178.45 26.6C186.75 26.6 192.6 31.95 192.6 40.65C192.6 41.4 192.55 42.2 192.45 42.95H173.9C174.1 46.2 175.85 47.5 178.05 47.5C179.95 47.5 181 46.45 181.55 45.3H192ZM206.411 42.75V55H196.611V26.95H206.411V31.9C208.511 28.85 211.711 26.7 215.461 26.7V37.15H212.711C208.661 37.15 206.411 38.45 206.411 42.75ZM228.774 30.85C230.224 28.35 233.074 26.6 236.974 26.6C243.674 26.6 248.924 32 248.924 40.95C248.924 49.9 243.674 55.35 236.974 55.35C233.024 55.35 230.274 53.55 228.774 51.1V68.4H218.974V26.95H228.774V30.85ZM238.974 40.95C238.974 37.15 236.624 35.15 233.874 35.15C231.124 35.15 228.774 37.2 228.774 40.95C228.774 44.75 231.124 46.8 233.874 46.8C236.624 46.8 238.974 44.7 238.974 40.95Z" fill="#F4F4F4"/>
</svg>
